<svg width="121" height="114" viewBox="0 0 121 114" fill="none" xmlns="http://www.w3.org/2000/svg">
<path d="M120.595 18.8002C120.595 8.69297 112.402 0.500235 102.293 0.500235C92.9922 0.500235 85.3143 7.44206 84.1502 16.4276C81.0296 15.2468 77.8903 14.5204 74.8593 14.0876C70.3325 13.4384 66.0196 13.4058 62.2526 13.4032C61.6695 13.4032 61.1002 13.4055 60.5478 13.4055C59.9973 13.4055 59.4282 13.4032 58.8425 13.4032C55.4939 13.4055 51.7152 13.4337 47.7361 13.8922C44.7543 14.238 41.6551 14.8281 38.5486 15.8511C38.0147 16.0251 37.4787 16.2179 36.9449 16.4201C35.7761 7.43737 28.1005 0.5 18.8025 0.5C8.69297 0.500235 0.5 8.69321 0.5 18.8002C0.5 27.9126 7.15496 35.4634 15.8677 36.8651C15.2726 38.1017 14.6919 39.3763 14.1512 40.7358C7.92877 56.3008 6.04525 67.8447 6.04525 75.9601C6.04525 78.7584 6.2709 81.15 6.62133 83.1583C6.97411 85.1666 7.45144 86.789 7.97827 88.0824C9.41518 91.6076 11.6656 94.408 14.1958 96.5763C17.9985 99.8355 22.4077 101.769 26.1982 103.163C28.0935 103.857 29.841 104.412 31.2659 104.887C31.9762 105.122 32.6041 105.338 33.1119 105.533C33.6197 105.726 34.0101 105.903 34.2125 106.016C35.1155 106.505 36.3336 107.255 37.8388 108.085C40.0962 109.336 43.0193 110.766 46.7535 111.857C50.4854 112.953 55.0288 113.71 60.548 113.708C67.906 113.712 73.531 112.356 77.8107 110.674C79.9509 109.835 81.7518 108.92 83.257 108.085C84.7596 107.255 85.9779 106.505 86.8833 106.016C87.1538 105.865 87.7533 105.606 88.5295 105.334C89.8979 104.84 91.8168 104.252 93.9638 103.499C97.1878 102.361 100.95 100.842 104.456 98.4483C106.209 97.2488 107.895 95.8288 109.388 94.112C110.881 92.4002 112.174 90.3919 113.117 88.0826C113.644 86.7916 114.121 85.1668 114.474 83.1585C114.827 81.1502 115.05 78.7586 115.05 75.9577C115.048 67.845 113.167 56.2987 106.944 40.7361C106.403 39.3768 105.828 38.0977 105.233 36.8654C113.942 35.4589 120.595 27.9103 120.595 18.8002ZM108.325 75.9575C108.325 78.3986 108.129 80.4019 107.849 81.9963C107.572 83.5885 107.207 84.7714 106.892 85.5377C105.902 87.9506 104.397 89.8552 102.518 91.4777C99.7082 93.8997 96.0396 95.593 92.5876 96.8486C90.8617 97.4789 89.1968 98.0081 87.7036 98.5065C86.9535 98.7559 86.2479 98.9982 85.5822 99.252C84.9144 99.5081 84.2888 99.7717 83.6705 100.106C82.516 100.738 81.3493 101.458 80.0023 102.201C77.989 103.315 75.5859 104.486 72.4536 105.404C69.3236 106.321 65.46 106.982 60.5478 106.984C53.9963 106.979 49.3165 105.813 45.7397 104.414C43.9503 103.71 42.4359 102.944 41.0931 102.201C39.7455 101.458 38.5791 100.738 37.4246 100.106C36.6015 99.6636 35.7596 99.3366 34.8331 99.0026C33.22 98.4242 31.3553 97.8577 29.3657 97.1566C26.3864 96.1102 23.1626 94.7697 20.4367 92.8979C19.0704 91.9667 17.8312 90.9061 16.7778 89.695C15.7244 88.484 14.8518 87.127 14.2028 85.5372C13.8876 84.7706 13.523 83.588 13.2458 81.9958C12.966 80.4015 12.7685 78.3981 12.7706 75.9594C12.7685 68.8883 14.4214 58.1672 20.3943 43.2302C22.7319 37.3819 25.5138 33.1042 28.5096 29.9273C30.7576 27.5427 33.1328 25.7697 35.5994 24.4151C39.2961 22.388 43.2257 21.3112 47.1905 20.7419C51.1506 20.1728 55.1271 20.1259 58.8425 20.1259C59.4142 20.1259 59.9832 20.1306 60.5478 20.1306C61.1098 20.1306 61.6788 20.1259 62.2526 20.1259C65.5543 20.1259 69.0628 20.1635 72.5854 20.5725C75.2261 20.8784 77.8717 21.3912 80.4465 22.2374C84.3102 23.5121 88.0163 25.511 91.4519 28.7843C94.8828 32.0623 98.0693 36.6528 100.701 43.2299C106.674 58.1658 108.327 68.8888 108.325 75.9575Z" fill="#3B82F6"/>
<path d="M108.325 75.9575C108.325 78.3986 108.129 80.4019 107.849 81.9963C107.572 83.5885 107.207 84.7714 106.892 85.5377C105.902 87.9506 104.397 89.8552 102.518 91.4777C99.7082 93.8997 96.0396 95.593 92.5876 96.8486C90.8617 97.4789 89.1968 98.0081 87.7036 98.5065C86.9535 98.7559 86.2479 98.9982 85.5822 99.252C84.9144 99.5081 84.2888 99.7717 83.6705 100.106C82.516 100.738 81.3493 101.458 80.0023 102.201C77.989 103.315 75.5859 104.486 72.4536 105.404C69.3236 106.321 65.46 106.982 60.5478 106.984C53.9963 106.979 49.3165 105.813 45.7397 104.414C43.9503 103.71 42.4359 102.944 41.0931 102.201C39.7455 101.458 38.5791 100.738 37.4246 100.106C36.6015 99.6636 35.7596 99.3366 34.8331 99.0026C33.22 98.4242 31.3553 97.8577 29.3657 97.1566C26.3864 96.1102 23.1626 94.7697 20.4367 92.8979C19.0704 91.9667 17.8312 90.9061 16.7778 89.695C15.7244 88.484 14.8518 87.127 14.2028 85.5372C13.8876 84.7706 13.523 83.588 13.2458 81.9958C12.966 80.4015 12.7685 78.3981 12.7706 75.9594C12.7685 68.8883 14.4214 58.1672 20.3943 43.2302C22.7319 37.3819 25.5138 33.1042 28.5096 29.9273C30.7576 27.5427 33.1328 25.7697 35.5994 24.4151C39.2961 22.388 43.2257 21.3112 47.1905 20.7419C51.1506 20.1728 55.1271 20.1259 58.8425 20.1259C59.4142 20.1259 59.9832 20.1306 60.5478 20.1306C61.1098 20.1306 61.6788 20.1259 62.2526 20.1259C65.5543 20.1259 69.0628 20.1635 72.5854 20.5725C75.2261 20.8784 77.8717 21.3912 80.4465 22.2374C84.3102 23.5121 88.0163 25.511 91.4519 28.7843C94.8828 32.0623 98.0693 36.6528 100.701 43.2299C106.674 58.1658 108.327 68.8888 108.325 75.9575Z" fill="#3B82F6"/>
<path d="M73.44 46.8447C69.4071 50.3746 70.4866 60.3005 79.2132 65.7019C87.2955 70.706 97.687 59.1598 90.3762 51.8464C83.9987 45.4692 79.5986 41.4552 73.44 46.8447Z" fill="white"/>
<path d="M75.5119 47.3944C73.3892 49.3594 74.2352 54.554 79.1618 57.1639C83.7247 59.5818 89.1316 53.2288 84.9331 49.5751C81.2706 46.3891 78.7535 44.3941 75.5119 47.3944Z" fill="#3B82F6"/>
<path d="M47.5257 46.8447C41.367 41.4549 36.9669 45.4692 30.5897 51.8464C23.2787 59.1598 33.6702 70.7061 41.7524 65.7019C50.4793 60.3005 51.5587 50.3746 47.5257 46.8447Z" fill="white"/>
<path d="M45.8859 47.4559C42.5025 44.6163 40.0852 46.7313 36.5817 50.0911C32.5653 53.9442 38.2741 60.0274 42.7142 57.391C47.5085 54.5452 48.1015 49.3157 45.8859 47.4559Z" fill="#3B82F6"/>
<path d="M73.6965 78.6922C72.2479 80.3665 70.3925 81.1896 68.6359 81.1896C67.0671 81.1802 65.5577 80.5687 64.2876 79.1367C63.3634 78.0856 62.5711 76.5476 62.1266 74.4455C65.3577 73.8999 67.7657 71.7905 67.7657 69.2649C67.7657 66.3254 64.5064 63.9432 60.483 63.9432C56.4594 63.9432 53.1978 66.3254 53.1978 69.2649C53.1978 71.6049 55.2694 73.5895 58.1456 74.3021C57.7269 76.5009 56.951 78.0952 56.0501 79.17C55.4529 79.887 54.7968 80.3834 54.1173 80.7101C53.4399 81.0347 52.7322 81.1898 52.0128 81.1898C50.3997 81.1898 48.6712 80.3972 47.2955 78.7255C46.7077 78.0059 45.6471 77.9024 44.9298 78.4902C44.2125 79.0783 44.1067 80.1364 44.6945 80.856C46.6179 83.2075 49.2825 84.5524 52.0128 84.5524C53.2238 84.5524 54.4396 84.2846 55.5706 83.7413C57.2709 82.93 58.7616 81.5027 59.8387 79.5533C59.9492 79.3555 60.0526 79.1486 60.1537 78.9394C60.6146 79.8446 61.1485 80.6583 61.7647 81.3591C63.62 83.48 66.1362 84.5618 68.6359 84.5499C71.4485 84.5522 74.2187 83.2354 76.2432 80.8886C76.8476 80.1854 76.7697 79.1249 76.0668 78.5184C75.3636 77.9116 74.3031 77.989 73.6965 78.6922Z" fill="white"/>
<ellipse cx="19.8256" cy="17.4099" rx="10.353" ry="8.62752" fill="white"/>
<ellipse cx="103.34" cy="17.4099" rx="10.353" ry="8.62752" fill="white"/>
<circle cx="79.8563" cy="51.0897" r="2.97586" fill="white"/>
<circle cx="42.1621" cy="51.0897" r="2.97586" fill="white"/>
</svg>
