<svg width="516" height="116" viewBox="0 0 516 116" fill="none" xmlns="http://www.w3.org/2000/svg">
<path d="M120.595 18.8002C120.595 8.69297 112.402 0.500235 102.293 0.500235C92.9922 0.500235 85.3143 7.44206 84.1502 16.4276C81.0296 15.2468 77.8903 14.5204 74.8593 14.0876C70.3325 13.4384 66.0196 13.4058 62.2526 13.4032C61.6695 13.4032 61.1002 13.4055 60.5478 13.4055C59.9973 13.4055 59.4282 13.4032 58.8425 13.4032C55.4939 13.4055 51.7152 13.4337 47.7361 13.8922C44.7543 14.238 41.6551 14.8281 38.5486 15.8511C38.0147 16.0251 37.4787 16.2179 36.9449 16.4201C35.7761 7.43737 28.1005 0.5 18.8025 0.5C8.69297 0.500235 0.5 8.69321 0.5 18.8002C0.5 27.9126 7.15496 35.4634 15.8677 36.8651C15.2726 38.1017 14.6919 39.3763 14.1512 40.7358C7.92877 56.3008 6.04525 67.8447 6.04525 75.9601C6.04525 78.7584 6.2709 81.15 6.62133 83.1583C6.97411 85.1666 7.45144 86.789 7.97826 88.0824C9.41518 91.6076 11.6656 94.4081 14.1958 96.5763C17.9985 99.8355 22.4077 101.769 26.1982 103.163C28.0935 103.857 29.841 104.412 31.2659 104.887C31.9762 105.122 32.6041 105.338 33.1119 105.533C33.6197 105.726 34.0101 105.903 34.2125 106.016C35.1155 106.505 36.3336 107.255 37.8388 108.085C40.0962 109.336 43.0193 110.766 46.7535 111.857C50.4854 112.953 55.0288 113.71 60.548 113.708C67.906 113.712 73.531 112.356 77.8107 110.674C79.9509 109.835 81.7518 108.92 83.257 108.085C84.7596 107.255 85.9779 106.505 86.8833 106.016C87.1538 105.865 87.7533 105.606 88.5295 105.334C89.8979 104.84 91.8168 104.252 93.9638 103.499C97.1878 102.361 100.95 100.842 104.456 98.4483C106.209 97.2488 107.895 95.8288 109.388 94.112C110.881 92.4002 112.174 90.3919 113.117 88.0826C113.644 86.7916 114.121 85.1668 114.474 83.1585C114.827 81.1502 115.05 78.7586 115.05 75.9577C115.048 67.845 113.167 56.2987 106.944 40.7361C106.403 39.3768 105.828 38.0977 105.233 36.8654C113.942 35.4589 120.595 27.9103 120.595 18.8002ZM108.325 75.9575C108.325 78.3986 108.129 80.4019 107.849 81.9963C107.572 83.5885 107.207 84.7713 106.892 85.5377C105.902 87.9506 104.397 89.8552 102.518 91.4777C99.7082 93.8997 96.0396 95.593 92.5876 96.8486C90.8617 97.4789 89.1968 98.0081 87.7036 98.5065C86.9535 98.7559 86.2479 98.9982 85.5822 99.252C84.9144 99.5081 84.2888 99.7717 83.6705 100.106C82.516 100.738 81.3493 101.458 80.0023 102.201C77.989 103.315 75.5859 104.486 72.4536 105.404C69.3236 106.321 65.46 106.982 60.5478 106.984C53.9963 106.979 49.3165 105.813 45.7397 104.414C43.9503 103.71 42.4359 102.944 41.0931 102.201C39.7455 101.458 38.5791 100.738 37.4245 100.106C36.6015 99.6636 35.7596 99.3366 34.8331 99.0026C33.22 98.4242 31.3553 97.8577 29.3657 97.1566C26.3864 96.1102 23.1626 94.7697 20.4367 92.8979C19.0704 91.9667 17.8312 90.9061 16.7778 89.695C15.7244 88.484 14.8518 87.127 14.2028 85.5372C13.8876 84.7706 13.523 83.588 13.2458 81.9958C12.966 80.4015 12.7685 78.3981 12.7706 75.9594C12.7685 68.8883 14.4214 58.1672 20.3943 43.2302C22.7319 37.3819 25.5138 33.1042 28.5096 29.9273C30.7576 27.5427 33.1328 25.7697 35.5994 24.4151C39.2961 22.388 43.2257 21.3112 47.1905 20.7419C51.1506 20.1728 55.1271 20.1259 58.8425 20.1259C59.4142 20.1259 59.9832 20.1306 60.5478 20.1306C61.1098 20.1306 61.6788 20.1259 62.2526 20.1259C65.5543 20.1259 69.0628 20.1635 72.5854 20.5725C75.2261 20.8784 77.8717 21.3912 80.4465 22.2374C84.3102 23.5121 88.0163 25.511 91.4519 28.7843C94.8828 32.0623 98.0693 36.6528 100.701 43.2299C106.674 58.1658 108.327 68.8888 108.325 75.9575Z" fill="#3B82F6"/>
<path d="M108.325 75.9575C108.325 78.3986 108.129 80.4019 107.849 81.9963C107.572 83.5885 107.207 84.7713 106.892 85.5377C105.902 87.9506 104.397 89.8552 102.518 91.4777C99.7082 93.8997 96.0396 95.593 92.5876 96.8486C90.8617 97.4789 89.1968 98.0081 87.7036 98.5065C86.9535 98.7559 86.2479 98.9982 85.5822 99.252C84.9144 99.5081 84.2888 99.7717 83.6705 100.106C82.516 100.738 81.3493 101.458 80.0023 102.201C77.989 103.315 75.5859 104.486 72.4536 105.404C69.3236 106.321 65.46 106.982 60.5478 106.984C53.9963 106.979 49.3165 105.813 45.7397 104.414C43.9503 103.71 42.4359 102.944 41.0931 102.201C39.7455 101.458 38.5791 100.738 37.4245 100.106C36.6015 99.6636 35.7596 99.3366 34.8331 99.0026C33.22 98.4242 31.3553 97.8577 29.3657 97.1566C26.3864 96.1102 23.1626 94.7697 20.4367 92.8979C19.0704 91.9667 17.8312 90.9061 16.7778 89.695C15.7244 88.484 14.8518 87.127 14.2028 85.5372C13.8876 84.7706 13.523 83.588 13.2458 81.9958C12.966 80.4015 12.7685 78.3981 12.7706 75.9594C12.7685 68.8883 14.4214 58.1672 20.3943 43.2302C22.7319 37.3819 25.5138 33.1042 28.5096 29.9273C30.7576 27.5427 33.1328 25.7697 35.5994 24.4151C39.2961 22.388 43.2257 21.3112 47.1905 20.7419C51.1506 20.1728 55.1271 20.1259 58.8425 20.1259C59.4142 20.1259 59.9832 20.1306 60.5478 20.1306C61.1098 20.1306 61.6788 20.1259 62.2526 20.1259C65.5543 20.1259 69.0628 20.1635 72.5854 20.5725C75.2261 20.8784 77.8717 21.3912 80.4465 22.2374C84.3102 23.5121 88.0163 25.511 91.4519 28.7843C94.8828 32.0623 98.0693 36.6528 100.701 43.2299C106.674 58.1658 108.327 68.8888 108.325 75.9575Z" fill="#3B82F6"/>
<path d="M73.44 46.8447C69.4071 50.3746 70.4866 60.3005 79.2132 65.7019C87.2955 70.706 97.687 59.1598 90.3762 51.8464C83.9987 45.4692 79.5986 41.4552 73.44 46.8447Z" fill="white"/>
<path d="M75.5119 47.3944C73.3892 49.3594 74.2352 54.554 79.1618 57.1639C83.7247 59.5818 89.1316 53.2288 84.9331 49.5751C81.2706 46.3891 78.7535 44.3941 75.5119 47.3944Z" fill="#3B82F6"/>
<path d="M47.5257 46.8447C41.367 41.4549 36.9669 45.4692 30.5897 51.8464C23.2787 59.1598 33.6702 70.7061 41.7524 65.7019C50.4793 60.3005 51.5587 50.3746 47.5257 46.8447Z" fill="white"/>
<path d="M45.8859 47.4559C42.5025 44.6163 40.0852 46.7313 36.5817 50.0911C32.5653 53.9442 38.2741 60.0274 42.7142 57.391C47.5085 54.5452 48.1015 49.3157 45.8859 47.4559Z" fill="#3B82F6"/>
<path d="M73.6965 78.6922C72.2479 80.3665 70.3925 81.1896 68.6359 81.1896C67.0671 81.1802 65.5577 80.5687 64.2876 79.1367C63.3634 78.0856 62.5711 76.5476 62.1266 74.4455C65.3577 73.8999 67.7657 71.7905 67.7657 69.2649C67.7657 66.3254 64.5064 63.9432 60.483 63.9432C56.4594 63.9432 53.1978 66.3254 53.1978 69.2649C53.1978 71.6049 55.2694 73.5895 58.1456 74.3021C57.7269 76.5009 56.951 78.0952 56.0501 79.17C55.4529 79.887 54.7968 80.3834 54.1173 80.7101C53.4399 81.0347 52.7322 81.1898 52.0128 81.1898C50.3997 81.1898 48.6712 80.3972 47.2955 78.7255C46.7077 78.0059 45.6471 77.9024 44.9298 78.4902C44.2125 79.0783 44.1067 80.1364 44.6945 80.856C46.6179 83.2075 49.2825 84.5524 52.0128 84.5524C53.2238 84.5524 54.4396 84.2846 55.5706 83.7413C57.2709 82.93 58.7616 81.5027 59.8387 79.5533C59.9492 79.3555 60.0526 79.1486 60.1537 78.9394C60.6146 79.8446 61.1485 80.6583 61.7647 81.3591C63.62 83.48 66.1362 84.5618 68.6359 84.5499C71.4485 84.5522 74.2187 83.2354 76.2432 80.8886C76.8476 80.1854 76.7697 79.1249 76.0668 78.5184C75.3636 77.9116 74.3031 77.989 73.6965 78.6922Z" fill="white"/>
<ellipse cx="19.8256" cy="17.4099" rx="10.353" ry="8.62752" fill="white"/>
<ellipse cx="103.34" cy="17.4099" rx="10.353" ry="8.62752" fill="white"/>
<circle cx="79.8563" cy="51.0897" r="2.97586" fill="white"/>
<circle cx="42.1621" cy="51.0897" r="2.97586" fill="white"/>
<path d="M142.476 57.94C142.476 53.78 143.212 49.716 144.684 45.748C146.22 41.716 148.428 38.068 151.308 34.804C154.188 31.476 157.708 28.852 161.868 26.932C166.028 24.948 170.764 23.956 176.076 23.956C182.348 23.956 187.756 25.332 192.3 28.084C196.908 30.836 200.332 34.42 202.572 38.836L192.396 45.844C191.244 43.284 189.74 41.268 187.884 39.796C186.028 38.26 184.044 37.204 181.932 36.628C179.82 35.988 177.74 35.668 175.692 35.668C172.364 35.668 169.452 36.34 166.956 37.684C164.524 39.028 162.476 40.788 160.812 42.964C159.148 45.14 157.9 47.572 157.068 50.26C156.3 52.948 155.916 55.636 155.916 58.324C155.916 61.332 156.396 64.244 157.356 67.06C158.316 69.812 159.66 72.276 161.388 74.452C163.18 76.564 165.292 78.26 167.724 79.54C170.22 80.756 172.94 81.364 175.884 81.364C177.996 81.364 180.14 81.012 182.316 80.308C184.492 79.604 186.508 78.484 188.364 76.948C190.22 75.412 191.66 73.428 192.684 70.996L203.532 77.236C202.188 80.628 199.98 83.508 196.908 85.876C193.9 88.244 190.508 90.036 186.732 91.252C182.956 92.468 179.212 93.076 175.5 93.076C170.636 93.076 166.188 92.084 162.156 90.1C158.124 88.052 154.636 85.364 151.692 82.036C148.812 78.644 146.54 74.868 144.876 70.708C143.276 66.484 142.476 62.228 142.476 57.94Z" fill="#3B82F6"/>
<path d="M244.001 53.332C240.097 53.332 236.609 54.1 233.537 55.636C230.465 57.108 228.257 59.252 226.913 62.068V92.5H214.049V42.196H225.857V52.948C227.649 49.492 229.921 46.772 232.673 44.788C235.425 42.804 238.337 41.716 241.409 41.524C242.113 41.524 242.657 41.524 243.041 41.524C243.425 41.524 243.745 41.556 244.001 41.62V53.332Z" fill="#3B82F6"/>
<path d="M254.054 92.5V42.196H266.918V92.5H254.054ZM254.054 35.188V22.42H266.918V35.188H254.054Z" fill="#3B82F6"/>
<path d="M359.546 92.5H346.682V64.276C346.682 60.308 345.978 57.396 344.57 55.54C343.226 53.62 341.338 52.66 338.906 52.66C336.41 52.66 334.01 53.652 331.706 55.636C329.466 57.556 327.866 60.084 326.906 63.22V92.5H314.042V64.276C314.042 60.244 313.338 57.3 311.93 55.444C310.586 53.588 308.698 52.66 306.266 52.66C303.77 52.66 301.37 53.62 299.066 55.54C296.826 57.46 295.226 59.988 294.266 63.124V92.5H281.402V42.196H293.018V51.508C294.938 48.244 297.498 45.748 300.698 44.02C303.898 42.228 307.578 41.332 311.738 41.332C315.898 41.332 319.13 42.356 321.434 44.404C323.802 46.452 325.306 48.98 325.946 51.988C327.994 48.532 330.586 45.908 333.722 44.116C336.922 42.26 340.506 41.332 344.474 41.332C347.61 41.332 350.138 41.908 352.058 43.06C354.042 44.148 355.578 45.652 356.666 47.572C357.754 49.428 358.49 51.54 358.874 53.908C359.322 56.276 359.546 58.676 359.546 61.108V92.5Z" fill="#3B82F6"/>
<path d="M403.77 93.46C399.866 93.46 396.41 92.596 393.402 90.868C390.458 89.076 388.154 86.676 386.49 83.668V112.948H373.626V42.196H384.858V50.836C386.778 47.892 389.21 45.588 392.154 43.924C395.098 42.196 398.458 41.332 402.234 41.332C405.626 41.332 408.73 42.004 411.546 43.348C414.426 44.692 416.922 46.58 419.034 49.012C421.146 51.38 422.778 54.132 423.93 57.268C425.146 60.34 425.754 63.668 425.754 67.252C425.754 72.116 424.794 76.532 422.874 80.5C421.018 84.468 418.426 87.636 415.098 90.004C411.834 92.308 408.058 93.46 403.77 93.46ZM399.45 82.516C401.434 82.516 403.226 82.1 404.826 81.268C406.426 80.436 407.802 79.316 408.954 77.908C410.17 76.436 411.066 74.804 411.642 73.012C412.282 71.156 412.602 69.236 412.602 67.252C412.602 65.14 412.25 63.188 411.546 61.396C410.906 59.604 409.946 58.036 408.666 56.692C407.386 55.284 405.882 54.196 404.154 53.428C402.49 52.66 400.666 52.276 398.682 52.276C397.466 52.276 396.218 52.5 394.938 52.948C393.722 53.332 392.538 53.908 391.386 54.676C390.234 55.444 389.21 56.34 388.314 57.364C387.482 58.388 386.874 59.508 386.49 60.724V72.532C387.258 74.388 388.282 76.084 389.562 77.62C390.906 79.156 392.442 80.372 394.17 81.268C395.898 82.1 397.658 82.516 399.45 82.516Z" fill="#3B82F6"/>
<path d="M437.254 22.42H450.118V76.372C450.118 78.676 450.502 80.244 451.27 81.076C452.038 81.844 453.094 82.228 454.438 82.228C455.462 82.228 456.518 82.1 457.606 81.844C458.694 81.588 459.654 81.268 460.486 80.884L462.214 90.676C460.486 91.508 458.47 92.148 456.166 92.596C453.862 93.044 451.782 93.268 449.926 93.268C445.894 93.268 442.758 92.212 440.518 90.1C438.342 87.924 437.254 84.852 437.254 80.884V22.42Z" fill="#3B82F6"/>
<path d="M469.317 102.292C470.469 102.548 471.525 102.772 472.485 102.964C473.509 103.156 474.373 103.252 475.077 103.252C476.293 103.252 477.285 102.932 478.053 102.292C478.885 101.716 479.685 100.628 480.453 99.028C481.221 97.492 482.021 95.316 482.853 92.5L462.981 42.196H476.325L489.861 79.348L501.765 42.196H514.053L492.933 102.484C492.165 104.724 490.981 106.74 489.381 108.532C487.845 110.388 485.893 111.828 483.525 112.852C481.221 113.94 478.629 114.484 475.749 114.484C474.725 114.484 473.701 114.388 472.677 114.196C471.653 114.068 470.533 113.812 469.317 113.428V102.292Z" fill="#3B82F6"/>
</svg>
